# xmcd
#
# Track frame offsets: 
#        150
#        19129
#        47757
#        70310
#        88684
#        107553
#        118019
#        135196
#
# Disc length: 1990 seconds
#
# Revision: 1
# Processed by: cddbd v1.5.2PL0 Copyright (c) Steve Scherf et al.
# Submitted via: ExactAudioCopyFreeDBPlugin 1.0
#
DISCID=6307c408
DTITLE=Aretha Franklin - Sparkle
DYEAR=1976
DGENRE=Soul
TTITLE0=Sparkle
TTITLE1=Something He Can Feel
TTITLE2=Hooked on Your Love
TTITLE3=Look Into Your Heart
TTITLE4=I Get High
TTITLE5=Jump
TTITLE6=Loving You Baby
TTITLE7=Rock with Me
EXTD=
EXTT0=
EXTT1=
EXTT2=
EXTT3=
EXTT4=
EXTT5=
EXTT6=
EXTT7=
PLAYORDER=
